<svg width="180" height="20" viewBox="0 0 180 20" fill="none" xmlns="http://www.w3.org/2000/svg">
<path d="M10 19C14.9706 19 19 14.9706 19 10C19 5.02944 14.9706 1 10 1C5.02944 1 1 5.02944 1 10C1 14.9706 5.02944 19 10 19Z" stroke="#2F4858"/>
<path d="M50 19C54.9706 19 59 14.9706 59 10C59 5.02944 54.9706 1 50 1C45.0294 1 41 5.02944 41 10C41 14.9706 45.0294 19 50 19Z" stroke="#2F4858"/>
<path d="M90 19C94.9706 19 99 14.9706 99 10C99 5.02944 94.9706 1 90 1C85.0294 1 81 5.02944 81 10C81 14.9706 85.0294 19 90 19Z" stroke="#2F4858"/>
<path d="M130 19C134.971 19 139 14.9706 139 10C139 5.02944 134.971 1 130 1C125.029 1 121 5.02944 121 10C121 14.9706 125.029 19 130 19Z" stroke="#2F4858"/>
<path d="M170 19C174.971 19 179 14.9706 179 10C179 5.02944 174.971 1 170 1C165.029 1 161 5.02944 161 10C161 14.9706 165.029 19 170 19Z" stroke="#2F4858"/>
</svg>
